<svg
    width="100"
    height="85"
    viewBox="0 0 100 85"
    xmlns="http://www.w3.org/2000/svg"
    fill="none"
    stroke-linecap="round"
    stroke-linejoin="round"
>
    <g stroke="#7a9aab" stroke-width="3.5">
        <path d="M68 15 A 8 8 0 0 0 62 23 A 6 6 0 1 1 68 15 Z" />
        <path d="M60 8 L 60.5 9 L 61 8 L 60.5 7 Z" />
        <path d="M82 25 L 82.5 26 L 83 25 L 82.5 24 Z" />
        <path d="M85 45 L 85.5 46 L 86 45 L 85.5 44 Z" />
    </g>

    <g stroke="#a86d5d" stroke-width="3.5">
        <path d="M25 65 V 45 L 48 30 L 71 45 V 65" />
        <path d="M42 65 V 50 H 54 V 65" />
        <path d="M25 45 L 71 45" />
        <path d="M34 50 L 34 65" />
        <path d="M62 50 L 62 65" />
    </g>

    <g stroke="#3a5a40" stroke-width="3.5">
        <path d="M71 65 L 78 65 L 78 40 L 88 40 L 75 15 L 62 40 L 72 40" />
    </g>

    <g stroke="#7a9aab" stroke-width="3.5">
        <path d="M20 70 C 30 75, 40 75, 50 70 S 65 60, 75 65" />
        <path d="M22 75 C 32 80, 42 80, 52 75 S 67 65, 77 70" />
    </g>
</svg>